<?xml version="1.0" encoding="utf-8"?>
<!-- Generator: Adobe Illustrator 27.5.0, SVG Export Plug-In . SVG Version: 6.00 Build 0)  -->
<svg version="1.1" id="Ebene_1" xmlns="http://www.w3.org/2000/svg" xmlns:xlink="http://www.w3.org/1999/xlink" x="0px" y="0px"
	 viewBox="0 0 194 32" style="enable-background:new 0 0 194 32;" xml:space="preserve">
<style type="text/css">
	.st0{clip-path:url(#SVGID_00000056414272627118790650000005892324467172199103_);}
	.st1{clip-path:url(#SVGID_00000062159965247064628390000001538085065031929533_);}
	.st2{fill:#FFFFFF;}
	.st3{fill:url(#SVGID_00000100355939009782101220000010256101465231696296_);}
	.st4{fill:#6366F1;}
	.st5{fill:#1e1b4b;}
</style>
<g>
	<g>
		<defs>
			<path id="SVGID_1_" d="M8,0h16c4.4,0,8,3.6,8,8v16c0,4.4-3.6,8-8,8H8c-4.4,0-8-3.6-8-8V8C0,3.6,3.6,0,8,0z"/>
		</defs>
		<clipPath id="SVGID_00000065071186975705025990000001511273058851615637_">
			<use xlink:href="#SVGID_1_"  style="overflow:visible;"/>
		</clipPath>
		<g style="clip-path:url(#SVGID_00000065071186975705025990000001511273058851615637_);">
			<g>
				<defs>
					<rect id="SVGID_00000002371230334062907920000000879151761807493566_" x="6" y="8" width="20" height="16"/>
				</defs>
				<clipPath id="SVGID_00000151533917199738887490000009520285957903416744_">
					<use xlink:href="#SVGID_00000002371230334062907920000000879151761807493566_"  style="overflow:visible;"/>
				</clipPath>
				<g style="clip-path:url(#SVGID_00000151533917199738887490000009520285957903416744_);">
					<path class="st2" d="M10.6,9.3l-0.2,0.8c0,0.2-0.2,0.3-0.3,0.3c-0.5,0.1-0.9,0.4-1.2,0.7c-0.1,0.1-0.3,0.2-0.5,0.1L7.6,11
						c-0.1,0.1-0.1,0.2-0.2,0.3l-0.1,0.1c-0.1,0.1-0.1,0.2-0.2,0.3l0.6,0.6c0.1,0.1,0.2,0.3,0.1,0.5c-0.1,0.2-0.1,0.5-0.1,0.7
						c0,0.2,0,0.5,0.1,0.7c0,0.2,0,0.3-0.1,0.5l-0.6,0.6c0,0.1,0.1,0.2,0.2,0.3l0.1,0.1c0.1,0.1,0.1,0.2,0.2,0.3l0.8-0.2
						c0.2,0,0.3,0,0.5,0.1c0.3,0.3,0.8,0.6,1.2,0.7c0.2,0,0.3,0.2,0.3,0.3l0.2,0.8c0.1,0,0.3,0,0.4,0c0.1,0,0.3,0,0.4,0l0.2-0.8
						c0-0.2,0.2-0.3,0.3-0.3c0.5-0.1,0.9-0.4,1.2-0.7c0.1-0.1,0.3-0.2,0.5-0.1l0.8,0.2c0.1-0.1,0.1-0.2,0.2-0.3l0.1-0.1
						c0.1-0.1,0.1-0.2,0.1-0.3l-0.6-0.6c-0.1-0.1-0.2-0.3-0.1-0.5c0-0.2,0.1-0.5,0.1-0.7c0-0.2,0-0.5-0.1-0.7c0-0.2,0-0.3,0.1-0.5
						l0.6-0.6c0-0.1-0.1-0.2-0.1-0.3l-0.1-0.1c-0.1-0.1-0.1-0.2-0.2-0.3l-0.8,0.2c-0.2,0-0.3,0-0.5-0.1c-0.3-0.3-0.8-0.6-1.2-0.7
						c-0.2,0-0.3-0.2-0.3-0.3l-0.2-0.8c-0.1,0-0.3,0-0.4,0S10.7,9.3,10.6,9.3L10.6,9.3z M10.1,8.3c0.3,0,0.6-0.1,0.9-0.1
						s0.6,0,0.9,0.1c0.2,0,0.3,0.2,0.4,0.4l0.2,0.9c0.4,0.2,0.8,0.4,1.1,0.6l0.9-0.2c0.2,0,0.4,0,0.5,0.2c0.2,0.2,0.3,0.4,0.5,0.7
						l0,0l0.1,0.2l0,0c0.1,0.2,0.2,0.5,0.3,0.7c0.1,0.2,0,0.4-0.1,0.5l-0.6,0.6c0,0.2,0,0.4,0,0.6c0,0.2,0,0.4,0,0.6l0.6,0.6
						c0.1,0.1,0.2,0.3,0.1,0.5c-0.1,0.3-0.2,0.5-0.3,0.7l0,0l-0.1,0.2l0,0c-0.1,0.2-0.3,0.5-0.5,0.7c-0.1,0.1-0.3,0.2-0.5,0.2
						l-0.9-0.2c-0.3,0.3-0.7,0.5-1.1,0.6l-0.2,0.8c0,0.2-0.2,0.3-0.4,0.4c-0.3,0.1-0.6,0.1-0.9,0.1s-0.6,0-0.9-0.1
						c-0.2,0-0.3-0.2-0.4-0.4l-0.2-0.9c-0.4-0.2-0.8-0.4-1.1-0.6L7.5,17c-0.2,0-0.4,0-0.5-0.2c-0.2-0.2-0.3-0.4-0.5-0.7l0,0
						l-0.1-0.1l0,0c-0.1-0.2-0.2-0.5-0.3-0.7c-0.1-0.2,0-0.4,0.1-0.5l0.6-0.6c0-0.2,0-0.4,0-0.6c0-0.2,0-0.4,0.1-0.6l-0.6-0.6
						C6,12.1,6,11.9,6.1,11.7c0.1-0.3,0.2-0.5,0.3-0.7l0,0l0.1-0.1l0,0c0.1-0.2,0.3-0.5,0.5-0.7C7.1,10,7.3,9.9,7.5,10l0.9,0.2
						c0.3-0.3,0.7-0.5,1.1-0.6l0.2-0.9C9.7,8.5,9.9,8.4,10.1,8.3L10.1,8.3z M9.2,13.5c0-0.2,0-0.5,0.1-0.7c0.1-0.2,0.2-0.4,0.4-0.6
						s0.4-0.3,0.6-0.4c0.2-0.1,0.4-0.1,0.7-0.1s0.5,0,0.7,0.1c0.2,0.1,0.4,0.2,0.6,0.4s0.3,0.4,0.4,0.6c0.1,0.2,0.1,0.4,0.1,0.7
						s0,0.5-0.1,0.7c-0.1,0.2-0.2,0.4-0.4,0.6c-0.2,0.2-0.4,0.3-0.6,0.4c-0.2,0.1-0.4,0.1-0.7,0.1s-0.5,0-0.7-0.1
						c-0.2-0.1-0.4-0.2-0.6-0.4c-0.2-0.2-0.3-0.4-0.4-0.6C9.3,14,9.2,13.7,9.2,13.5z M11,14.2c0.1,0,0.2,0,0.3-0.1
						c0.1,0,0.2-0.1,0.2-0.2c0.1-0.1,0.1-0.2,0.2-0.2c0-0.1,0.1-0.2,0.1-0.3s0-0.2-0.1-0.3c0-0.1-0.1-0.2-0.2-0.2
						c-0.1-0.1-0.2-0.1-0.2-0.2c-0.1,0-0.2-0.1-0.3-0.1s-0.2,0-0.3,0.1c-0.1,0-0.2,0.1-0.2,0.2c-0.1,0.1-0.1,0.2-0.2,0.2
						c0,0.1-0.1,0.2-0.1,0.3s0,0.2,0.1,0.3c0,0.1,0.1,0.2,0.2,0.2c0.1,0.1,0.2,0.1,0.2,0.2C10.8,14.2,10.9,14.2,11,14.2z M16.3,19.4
						l0.8,0.2c0.2,0,0.3,0.2,0.3,0.3c0.1,0.5,0.4,0.9,0.7,1.2c0.1,0.1,0.2,0.3,0.1,0.5L18,22.5c0.1,0.1,0.2,0.1,0.3,0.2l0.1,0.1
						c0.1,0.1,0.2,0.1,0.3,0.2l0.6-0.6c0.1-0.1,0.3-0.2,0.5-0.1c0.2,0.1,0.5,0.1,0.7,0.1c0.2,0,0.5,0,0.7-0.1c0.2,0,0.3,0,0.5,0.1
						l0.6,0.6c0.1,0,0.2-0.1,0.3-0.2l0.1-0.1c0.1-0.1,0.2-0.1,0.3-0.2l-0.2-0.8c0-0.2,0-0.3,0.1-0.5c0.3-0.3,0.6-0.8,0.7-1.2
						c0-0.2,0.2-0.3,0.3-0.3l0.8-0.2c0-0.1,0-0.3,0-0.4s0-0.3,0-0.4l-0.8-0.2c-0.2,0-0.3-0.2-0.3-0.3c-0.1-0.5-0.4-0.9-0.7-1.2
						c-0.1-0.1-0.2-0.3-0.1-0.5l0.2-0.8c-0.1-0.1-0.2-0.1-0.3-0.2l-0.1-0.1c-0.1-0.1-0.2-0.1-0.3-0.2l-0.6,0.6
						c-0.1,0.1-0.3,0.2-0.5,0.1c-0.2,0-0.5-0.1-0.7-0.1c-0.2,0-0.5,0-0.7,0.1c-0.2,0-0.3,0-0.5-0.1l-0.6-0.6c-0.1,0-0.2,0.1-0.3,0.2
						l-0.1,0.1c-0.1,0.1-0.2,0.1-0.3,0.2l0.2,0.8c0,0.2,0,0.3-0.1,0.5c-0.3,0.3-0.6,0.8-0.7,1.2c0,0.2-0.2,0.3-0.3,0.3l-0.8,0.2
						c0,0.1,0,0.3,0,0.4S16.3,19.3,16.3,19.4L16.3,19.4z M15.3,19.9c-0.1-0.3-0.1-0.6-0.1-0.9s0-0.6,0.1-0.9c0-0.2,0.2-0.3,0.4-0.4
						l0.9-0.2c0.2-0.4,0.4-0.8,0.6-1.1L17,15.5c0-0.2,0-0.4,0.2-0.5c0.2-0.2,0.4-0.3,0.7-0.5l0,0l0.2-0.1l0,0
						c0.2-0.1,0.5-0.2,0.7-0.3c0.2-0.1,0.4,0,0.5,0.1l0.6,0.6c0.2,0,0.4-0.1,0.6-0.1c0.2,0,0.4,0,0.6,0.1l0.6-0.6
						c0.1-0.1,0.3-0.2,0.5-0.1c0.3,0.1,0.5,0.2,0.7,0.3l0,0l0.2,0.1l0,0c0.2,0.1,0.5,0.3,0.7,0.5c0.1,0.1,0.2,0.3,0.2,0.5l-0.2,0.9
						c0.3,0.3,0.5,0.7,0.6,1.1l0.9,0.2c0.2,0,0.3,0.2,0.4,0.4c0.1,0.3,0.1,0.6,0.1,0.9c0,0.3,0,0.6-0.1,0.9c0,0.2-0.2,0.3-0.4,0.4
						l-0.9,0.2c-0.2,0.4-0.4,0.8-0.6,1.1l0.2,0.9c0,0.2,0,0.4-0.2,0.5c-0.2,0.2-0.4,0.3-0.7,0.5l0,0l-0.1,0.1l0,0
						c-0.2,0.1-0.5,0.2-0.7,0.3c-0.2,0.1-0.4,0-0.5-0.1l-0.6-0.6c-0.2,0-0.4,0.1-0.6,0.1c-0.2,0-0.4,0-0.6-0.1l-0.6,0.6
						c-0.1,0.1-0.3,0.2-0.5,0.1c-0.3-0.1-0.5-0.2-0.7-0.3l0,0l-0.1-0.1l0,0c-0.2-0.1-0.5-0.3-0.7-0.5c-0.1-0.1-0.2-0.3-0.2-0.5
						l0.2-0.9c-0.3-0.3-0.5-0.7-0.6-1.1l-0.9-0.2C15.5,20.3,15.4,20.1,15.3,19.9L15.3,19.9z M20.5,20.8c-0.5,0-0.9-0.2-1.2-0.5
						c-0.3-0.3-0.5-0.8-0.5-1.2c0-0.5,0.2-0.9,0.5-1.2s0.8-0.5,1.2-0.5s0.9,0.2,1.2,0.5c0.3,0.3,0.5,0.8,0.5,1.2
						c0,0.5-0.2,0.9-0.5,1.2C21.4,20.6,21,20.8,20.5,20.8z M21.2,19c0-0.2-0.1-0.4-0.2-0.5c-0.1-0.1-0.3-0.2-0.5-0.2
						s-0.4,0.1-0.5,0.2c-0.1,0.1-0.2,0.3-0.2,0.5c0,0.2,0.1,0.4,0.2,0.5c0.1,0.1,0.3,0.2,0.5,0.2s0.4-0.1,0.5-0.2
						C21.2,19.4,21.2,19.2,21.2,19z"/>
				</g>
			</g>
			
				<linearGradient id="SVGID_00000150095592807294881250000012736459210535779227_" gradientUnits="userSpaceOnUse" x1="16" y1="31.89" x2="16" y2="-0.11" gradientTransform="matrix(1 0 0 -1 0 31.89)">
				<stop  offset="0" style="stop-color:#4338CA"/>
				<stop  offset="1" style="stop-color:#6366F1"/>
			</linearGradient>
			<path style="fill:url(#SVGID_00000150095592807294881250000012736459210535779227_);" d="M22,0H8C3.6,0,0,3.6,0,8v16
				c0,4.4,3.6,8,8,8h16c4.4,0,8-3.6,8-8V10L22,0z"/>
			<path class="st4" d="M32,10L22,0v8c0,1.1,0.9,2,2,2H32z"/>
		</g>
	</g>
</g>
<path style="fill:#1e1b4b" d="M44.5,23h-5.6V8.5h5.5c1.5,0,2.8,0.3,3.9,0.9c1.1,0.6,1.9,1.4,2.5,2.5c0.6,1.1,0.9,2.4,0.9,3.9
	c0,1.5-0.3,2.8-0.9,3.9c-0.6,1.1-1.4,1.9-2.5,2.5C47.3,22.7,46,23,44.5,23z M42.9,19.6h1.5c0.7,0,1.3-0.1,1.8-0.3
	c0.5-0.2,0.9-0.6,1.2-1.2c0.3-0.6,0.4-1.4,0.4-2.4c0-1-0.1-1.8-0.4-2.4c-0.3-0.6-0.7-1-1.2-1.2c-0.5-0.2-1.2-0.3-1.9-0.3h-1.4V19.6z
	 M58.9,23.2c-1.2,0-2.2-0.2-3-0.7c-0.8-0.5-1.5-1.1-1.9-2c-0.4-0.8-0.7-1.8-0.7-2.9c0-1.1,0.2-2.1,0.7-2.9c0.4-0.8,1.1-1.5,1.9-2
	c0.8-0.5,1.9-0.7,3-0.7s2.2,0.2,3,0.7c0.8,0.5,1.5,1.1,1.9,2c0.4,0.8,0.7,1.8,0.7,2.9c0,1.1-0.2,2.1-0.7,2.9c-0.4,0.8-1.1,1.5-1.9,2
	C61.1,23,60.1,23.2,58.9,23.2z M58.9,20.3c0.3,0,0.6-0.1,0.9-0.3c0.2-0.2,0.4-0.5,0.6-1c0.1-0.4,0.2-0.9,0.2-1.5
	c0-0.6-0.1-1.1-0.2-1.5c-0.1-0.4-0.3-0.7-0.6-1c-0.2-0.2-0.5-0.3-0.9-0.3c-0.4,0-0.7,0.1-0.9,0.3c-0.3,0.2-0.4,0.5-0.6,1
	c-0.1,0.4-0.2,0.9-0.2,1.5c0,0.6,0.1,1.1,0.2,1.5c0.1,0.4,0.3,0.7,0.6,1C58.3,20.2,58.6,20.3,58.9,20.3z M71.4,23.2
	c-1.2,0-2.2-0.2-3-0.7c-0.8-0.5-1.5-1.1-1.9-2c-0.4-0.8-0.7-1.8-0.7-2.9c0-1.1,0.2-2.1,0.7-2.9c0.4-0.8,1.1-1.5,1.9-2
	c0.8-0.5,1.9-0.7,3-0.7c1.1,0,2,0.2,2.8,0.6c0.8,0.4,1.4,0.9,1.8,1.6c0.4,0.7,0.6,1.5,0.7,2.5H73c-0.1-0.6-0.2-1-0.5-1.3
	c-0.3-0.3-0.6-0.5-1.1-0.5c-0.3,0-0.6,0.1-0.9,0.3c-0.3,0.2-0.5,0.5-0.6,0.9c-0.1,0.4-0.2,0.9-0.2,1.5c0,0.6,0.1,1.1,0.2,1.5
	c0.1,0.4,0.3,0.7,0.6,0.9c0.3,0.2,0.6,0.3,0.9,0.3c0.3,0,0.5-0.1,0.8-0.2c0.2-0.1,0.4-0.3,0.5-0.6c0.1-0.3,0.2-0.6,0.3-1h3.6
	c0,1-0.2,1.8-0.7,2.5c-0.4,0.7-1,1.3-1.8,1.6C73.4,23,72.5,23.2,71.4,23.2z M88.3,15.6h-3.6c0-0.2-0.1-0.4-0.2-0.6
	c-0.1-0.2-0.3-0.3-0.5-0.4c-0.2-0.1-0.4-0.1-0.7-0.1c-0.3,0-0.6,0.1-0.9,0.2C82.1,14.9,82,15,82,15.3c0,0.2,0.1,0.3,0.2,0.4
	c0.1,0.1,0.4,0.2,0.8,0.3l2.2,0.4c1.1,0.2,1.9,0.5,2.5,1c0.5,0.5,0.8,1.1,0.8,1.9c0,0.8-0.2,1.5-0.7,2c-0.5,0.6-1.1,1-1.9,1.3
	c-0.8,0.3-1.7,0.5-2.7,0.5c-1.7,0-3-0.3-3.9-1c-0.9-0.7-1.5-1.6-1.6-2.7h3.9c0.1,0.3,0.2,0.6,0.5,0.8c0.3,0.2,0.7,0.3,1.1,0.3
	c0.4,0,0.7-0.1,0.9-0.2c0.2-0.1,0.4-0.3,0.4-0.5c0-0.2-0.1-0.4-0.3-0.5c-0.2-0.1-0.5-0.2-0.9-0.3l-1.9-0.3c-1.1-0.2-1.9-0.6-2.5-1.1
	c-0.6-0.5-0.8-1.2-0.8-2.1c0-0.8,0.2-1.4,0.6-1.9c0.4-0.5,1-0.9,1.7-1.2c0.8-0.3,1.7-0.4,2.7-0.4c1.6,0,2.8,0.3,3.7,1
	C87.7,13.6,88.2,14.5,88.3,15.6z M92.8,23h-3.3l5-14.5h4l5,14.5h-3.3l-3.6-11.2h-0.1L92.8,23z M92.6,17.3h7.8v2.4h-7.8V17.3z
	 M112.2,18.4v-6.3h3V23h-2.9v-2h-0.1c-0.2,0.6-0.7,1.2-1.2,1.5c-0.6,0.4-1.3,0.6-2.1,0.6c-0.7,0-1.4-0.2-1.9-0.5
	c-0.6-0.3-1-0.8-1.3-1.4c-0.3-0.6-0.5-1.3-0.5-2.2v-6.9h3v6.4c0,0.6,0.2,1.2,0.5,1.5c0.3,0.4,0.8,0.6,1.4,0.6c0.4,0,0.7-0.1,1-0.2
	c0.3-0.2,0.6-0.4,0.8-0.8C112.1,19.3,112.2,18.8,112.2,18.4z M123.5,12.1v2.3h-6.6v-2.3H123.5z M118.4,9.5h3v10.2
	c0,0.3,0,0.5,0.1,0.7c0.1,0.2,0.2,0.3,0.4,0.3c0.2,0.1,0.3,0.1,0.5,0.1c0.1,0,0.3,0,0.4,0c0.1,0,0.3,0,0.3-0.1l0.5,2.3
	c-0.2,0-0.4,0.1-0.6,0.2c-0.3,0.1-0.6,0.1-1,0.1c-0.7,0-1.4-0.1-1.9-0.3c-0.5-0.2-1-0.6-1.3-1c-0.3-0.5-0.5-1.1-0.4-1.8V9.5z
	 M130.2,23.2c-1.1,0-2.1-0.2-2.9-0.7c-0.8-0.5-1.4-1.1-1.9-2c-0.4-0.8-0.7-1.8-0.7-2.9c0-1.1,0.2-2.1,0.7-3c0.4-0.8,1.1-1.5,1.9-2
	c0.8-0.5,1.8-0.7,2.9-0.7c1.1,0,2.1,0.2,2.9,0.7c0.8,0.5,1.4,1.1,1.9,2c0.4,0.8,0.7,1.8,0.7,3c0,1.1-0.2,2.1-0.7,2.9
	c-0.4,0.8-1.1,1.5-1.9,2C132.3,23,131.4,23.2,130.2,23.2z M130.3,20.9c0.5,0,0.9-0.1,1.3-0.4c0.3-0.3,0.6-0.7,0.8-1.2
	c0.2-0.5,0.3-1.1,0.3-1.7c0-0.6-0.1-1.2-0.3-1.7c-0.2-0.5-0.4-0.9-0.8-1.2c-0.3-0.3-0.8-0.4-1.3-0.4c-0.5,0-0.9,0.1-1.3,0.4
	c-0.3,0.3-0.6,0.7-0.8,1.2c-0.2,0.5-0.3,1.1-0.3,1.7c0,0.6,0.1,1.2,0.3,1.7c0.2,0.5,0.4,0.9,0.8,1.2
	C129.3,20.7,129.8,20.9,130.3,20.9z M137.6,23V12.1h2.9V14h0.1c0.2-0.6,0.6-1.1,1.1-1.5c0.5-0.4,1.2-0.6,1.9-0.6
	c0.7,0,1.4,0.2,1.9,0.6c0.5,0.4,0.9,0.9,1.1,1.5h0.1c0.2-0.6,0.6-1.1,1.2-1.5c0.6-0.4,1.3-0.6,2.1-0.6c1,0,1.8,0.3,2.5,1
	c0.6,0.6,1,1.6,1,2.7V23h-3v-6.7c0-0.6-0.2-1.1-0.5-1.4c-0.3-0.3-0.7-0.5-1.2-0.5c-0.5,0-1,0.2-1.3,0.5c-0.3,0.3-0.5,0.8-0.5,1.4V23
	H144v-6.8c0-0.5-0.2-1-0.5-1.3c-0.3-0.3-0.7-0.5-1.2-0.5c-0.3,0-0.6,0.1-0.9,0.3c-0.3,0.2-0.5,0.4-0.6,0.7c-0.2,0.3-0.2,0.6-0.2,1.1
	V23H137.6z M158.9,23.2c-0.7,0-1.3-0.1-1.9-0.4c-0.5-0.2-1-0.6-1.3-1.1c-0.3-0.5-0.5-1.1-0.5-1.8c0-0.6,0.1-1.1,0.3-1.5
	c0.2-0.4,0.5-0.7,0.9-1c0.4-0.3,0.8-0.4,1.3-0.6c0.5-0.1,1-0.2,1.5-0.3c0.6-0.1,1.1-0.1,1.5-0.2c0.4-0.1,0.7-0.2,0.8-0.3
	c0.2-0.1,0.3-0.3,0.3-0.5v0c0-0.4-0.1-0.8-0.4-1c-0.3-0.2-0.7-0.4-1.2-0.4c-0.5,0-1,0.1-1.3,0.4c-0.3,0.2-0.5,0.5-0.6,0.9l-2.8-0.2
	c0.1-0.7,0.4-1.2,0.8-1.7c0.4-0.5,1-0.9,1.6-1.1c0.7-0.3,1.4-0.4,2.3-0.4c0.6,0,1.2,0.1,1.7,0.2c0.6,0.1,1.1,0.4,1.5,0.7
	c0.4,0.3,0.8,0.7,1,1.2c0.3,0.5,0.4,1,0.4,1.7V23h-2.9v-1.5h-0.1c-0.2,0.3-0.4,0.6-0.7,0.9c-0.3,0.3-0.6,0.5-1.1,0.6
	C160,23.1,159.5,23.2,158.9,23.2z M159.8,21.1c0.4,0,0.8-0.1,1.2-0.3c0.3-0.2,0.6-0.4,0.8-0.7c0.2-0.3,0.3-0.6,0.3-1v-1.2
	c-0.1,0.1-0.2,0.1-0.4,0.2c-0.2,0-0.3,0.1-0.5,0.1c-0.2,0-0.4,0.1-0.6,0.1c-0.2,0-0.4,0.1-0.6,0.1c-0.4,0.1-0.7,0.1-0.9,0.2
	c-0.3,0.1-0.5,0.3-0.6,0.5c-0.1,0.2-0.2,0.4-0.2,0.7c0,0.4,0.1,0.7,0.4,0.9C159,21,159.3,21.1,159.8,21.1z M173.2,12.1v2.3h-6.6
	v-2.3H173.2z M168.2,9.5h3v10.2c0,0.3,0,0.5,0.1,0.7c0.1,0.2,0.2,0.3,0.4,0.3c0.2,0.1,0.3,0.1,0.5,0.1c0.1,0,0.3,0,0.4,0
	c0.1,0,0.3,0,0.3-0.1l0.5,2.3c-0.2,0-0.4,0.1-0.6,0.2c-0.3,0.1-0.6,0.1-1,0.1c-0.7,0-1.4-0.1-1.9-0.3c-0.5-0.2-1-0.6-1.3-1
	c-0.3-0.5-0.5-1.1-0.4-1.8V9.5z M180,23.2c-1.1,0-2.1-0.2-2.9-0.7c-0.8-0.5-1.4-1.1-1.9-2c-0.4-0.8-0.7-1.8-0.7-2.9
	c0-1.1,0.2-2.1,0.7-3c0.4-0.8,1.1-1.5,1.9-2c0.8-0.5,1.8-0.7,2.9-0.7s2.1,0.2,2.9,0.7c0.8,0.5,1.4,1.1,1.9,2c0.4,0.8,0.7,1.8,0.7,3
	c0,1.1-0.2,2.1-0.7,2.9c-0.4,0.8-1.1,1.5-1.9,2C182.1,23,181.1,23.2,180,23.2z M180,20.9c0.5,0,0.9-0.1,1.3-0.4
	c0.3-0.3,0.6-0.7,0.8-1.2c0.2-0.5,0.3-1.1,0.3-1.7c0-0.6-0.1-1.2-0.3-1.7c-0.2-0.5-0.4-0.9-0.8-1.2c-0.3-0.3-0.8-0.4-1.3-0.4
	c-0.5,0-0.9,0.1-1.3,0.4c-0.3,0.3-0.6,0.7-0.8,1.2c-0.2,0.5-0.3,1.1-0.3,1.7c0,0.6,0.1,1.2,0.3,1.7c0.2,0.5,0.4,0.9,0.8,1.2
	C179.1,20.7,179.5,20.9,180,20.9z M187.4,23V12.1h2.9V14h0.1c0.2-0.7,0.5-1.2,1-1.5c0.5-0.4,1-0.5,1.6-0.5c0.2,0,0.3,0,0.5,0
	c0.2,0,0.3,0,0.5,0.1v2.7c-0.1,0-0.3-0.1-0.6-0.1c-0.3,0-0.5,0-0.7,0c-0.4,0-0.8,0.1-1.2,0.3c-0.3,0.2-0.6,0.5-0.8,0.8
	c-0.2,0.3-0.3,0.7-0.3,1.2V23H187.4z"/>
<path class="st2" d="M11.2,9.8L11,10.5c0,0.2-0.2,0.3-0.3,0.3c-0.4,0.1-0.8,0.4-1.1,0.7c-0.1,0.1-0.3,0.1-0.4,0.1l-0.7-0.2
	c-0.1,0.1-0.1,0.2-0.2,0.3l-0.1,0.1C8.1,11.9,8,12,8,12.1l0.5,0.5c0.1,0.1,0.2,0.3,0.1,0.4c0,0.2-0.1,0.4-0.1,0.7
	c0,0.2,0,0.4,0.1,0.7c0,0.2,0,0.3-0.1,0.4L8,15.4c0,0.1,0.1,0.2,0.1,0.3l0.1,0.1c0.1,0.1,0.1,0.2,0.2,0.3l0.7-0.2
	c0.2,0,0.3,0,0.4,0.1c0.3,0.3,0.7,0.5,1.1,0.7c0.2,0,0.3,0.2,0.3,0.3l0.2,0.7c0.1,0,0.3,0,0.4,0c0.1,0,0.3,0,0.4,0l0.2-0.7
	c0-0.2,0.2-0.3,0.3-0.3c0.4-0.1,0.8-0.4,1.1-0.7c0.1-0.1,0.3-0.1,0.4-0.1l0.7,0.2c0.1-0.1,0.1-0.2,0.2-0.3l0.1-0.1
	c0-0.1,0.1-0.2,0.1-0.3l-0.5-0.5c-0.1-0.1-0.2-0.3-0.1-0.4c0-0.2,0.1-0.4,0.1-0.7c0-0.2,0-0.4-0.1-0.7c0-0.2,0-0.3,0.1-0.4l0.5-0.5
	c0-0.1-0.1-0.2-0.1-0.3L15,11.7c-0.1-0.1-0.1-0.2-0.2-0.3l-0.7,0.2c-0.2,0-0.3,0-0.4-0.1c-0.3-0.3-0.7-0.5-1.1-0.7
	c-0.2,0-0.3-0.2-0.3-0.3L12,9.8c-0.1,0-0.3,0-0.4,0C11.5,9.8,11.3,9.8,11.2,9.8L11.2,9.8z M10.7,8.9c0.3,0,0.6-0.1,0.8-0.1
	c0.3,0,0.6,0,0.8,0.1c0.2,0,0.3,0.2,0.4,0.3l0.2,0.8c0.4,0.1,0.7,0.4,1,0.6l0.8-0.2c0.2,0,0.4,0,0.5,0.2c0.2,0.2,0.3,0.4,0.4,0.6
	l0,0l0,0l0.1,0.1l0,0l0,0c0.1,0.2,0.2,0.4,0.3,0.7c0.1,0.2,0,0.4-0.1,0.5l-0.6,0.6c0,0.2,0,0.4,0,0.6s0,0.4,0,0.6l0.6,0.6
	c0.1,0.1,0.2,0.3,0.1,0.5c-0.1,0.2-0.2,0.5-0.3,0.7l0,0l0,0l-0.1,0.1l0,0l0,0c-0.1,0.2-0.3,0.4-0.4,0.6C15.2,17,15,17.1,14.9,17
	l-0.8-0.2c-0.3,0.3-0.7,0.5-1,0.6l-0.2,0.8c0,0.2-0.2,0.3-0.4,0.3c-0.3,0-0.6,0.1-0.8,0.1c-0.3,0-0.6,0-0.8-0.1
	c-0.2,0-0.3-0.2-0.4-0.3l-0.2-0.8c-0.4-0.1-0.7-0.4-1-0.6L8.3,17c-0.2,0-0.4,0-0.5-0.2c-0.2-0.2-0.3-0.4-0.4-0.6l0,0l0,0l-0.1-0.1
	l0,0l0,0c-0.1-0.2-0.2-0.5-0.3-0.7c-0.1-0.2,0-0.4,0.1-0.5l0.6-0.6c0-0.2,0-0.4,0-0.6s0-0.4,0-0.6l-0.6-0.6C7,12.4,6.9,12.2,7,12.1
	c0.1-0.2,0.2-0.5,0.3-0.7l0,0l0,0l0.1-0.1l0,0l0,0c0.1-0.2,0.3-0.4,0.5-0.6c0.1-0.1,0.3-0.2,0.5-0.2l0.8,0.2c0.3-0.3,0.7-0.5,1-0.6
	l0.2-0.8C10.4,9.1,10.6,9,10.7,8.9L10.7,8.9z M10,13.7c0-0.9,0.7-1.6,1.6-1.6s1.6,0.7,1.6,1.6s-0.7,1.6-1.6,1.6S10,14.6,10,13.7z
	 M11.6,14.4c0.4,0,0.7-0.3,0.7-0.7c0-0.4-0.3-0.7-0.7-0.7c-0.4,0-0.7,0.3-0.7,0.7C10.9,14.1,11.2,14.4,11.6,14.4z M16.5,19.3
	l0.7,0.2c0.2,0,0.3,0.2,0.3,0.3c0.1,0.4,0.4,0.8,0.7,1.1c0.1,0.1,0.1,0.3,0.1,0.4l-0.2,0.7c0.1,0.1,0.2,0.1,0.3,0.2l0.1,0.1
	c0.1,0.1,0.2,0.1,0.3,0.1l0.5-0.5c0.1-0.1,0.3-0.2,0.4-0.1c0.2,0,0.4,0.1,0.7,0.1s0.4,0,0.7-0.1c0.2,0,0.3,0,0.4,0.1l0.5,0.5
	c0.1,0,0.2-0.1,0.3-0.1l0.1-0.1c0.1-0.1,0.2-0.1,0.3-0.2l-0.2-0.7c0-0.2,0-0.3,0.1-0.4c0.3-0.3,0.5-0.7,0.7-1.1
	c0-0.2,0.2-0.3,0.3-0.3l0.7-0.2c0-0.1,0-0.3,0-0.4c0-0.1,0-0.3,0-0.4l-0.7-0.2c-0.2,0-0.3-0.2-0.3-0.3c-0.1-0.4-0.4-0.8-0.7-1.1
	c-0.1-0.1-0.1-0.3-0.1-0.4l0.2-0.7c-0.1-0.1-0.2-0.1-0.3-0.2l-0.1-0.1c-0.1,0-0.2-0.1-0.3-0.1l-0.5,0.5c-0.1,0.1-0.3,0.2-0.4,0.1
	c-0.2,0-0.4-0.1-0.7-0.1c-0.2,0-0.4,0-0.7,0.1c-0.2,0-0.3,0-0.4-0.1l-0.5-0.5c-0.1,0-0.2,0.1-0.3,0.1l-0.1,0.1
	c-0.1,0.1-0.2,0.1-0.3,0.2l0.2,0.7c0,0.2,0,0.3-0.1,0.4c-0.3,0.3-0.5,0.7-0.7,1.1c0,0.2-0.2,0.3-0.3,0.3l-0.7,0.2c0,0.1,0,0.3,0,0.4
	C16.5,19,16.5,19.1,16.5,19.3L16.5,19.3z M15.6,19.7c0-0.3-0.1-0.6-0.1-0.8s0-0.6,0.1-0.8c0-0.2,0.2-0.3,0.3-0.4l0.8-0.2
	c0.1-0.4,0.4-0.7,0.6-1l-0.2-0.8c0-0.2,0-0.4,0.2-0.5c0.2-0.2,0.4-0.3,0.6-0.4l0,0l0,0l0.1-0.1l0,0l0,0c0.2-0.1,0.4-0.2,0.7-0.3
	c0.2-0.1,0.4,0,0.5,0.1l0.6,0.6c0.2,0,0.4,0,0.6,0s0.4,0,0.6,0l0.6-0.6c0.1-0.1,0.3-0.2,0.5-0.1c0.2,0.1,0.5,0.2,0.7,0.3l0,0l0,0
	l0.1,0.1l0,0l0,0c0.2,0.1,0.4,0.3,0.6,0.4c0.1,0.1,0.2,0.3,0.2,0.5l-0.2,0.8c0.3,0.3,0.5,0.7,0.6,1l0.8,0.2c0.2,0,0.3,0.2,0.3,0.4
	c0,0.3,0.1,0.6,0.1,0.8s0,0.6-0.1,0.8c0,0.2-0.2,0.3-0.3,0.4l-0.8,0.2c-0.1,0.4-0.4,0.7-0.6,1l0.2,0.8c0,0.2,0,0.4-0.2,0.5
	c-0.2,0.2-0.4,0.3-0.6,0.4l0,0l0,0l-0.1,0.1l0,0l0,0c-0.2,0.1-0.5,0.2-0.7,0.3c-0.2,0.1-0.4,0-0.5-0.1l-0.6-0.6c-0.2,0-0.4,0-0.6,0
	s-0.4,0-0.6,0l-0.6,0.6c-0.1,0.1-0.3,0.2-0.5,0.1c-0.2-0.1-0.5-0.2-0.7-0.3l0,0l0,0l-0.1-0.1l0,0l0,0c-0.2-0.1-0.4-0.3-0.6-0.4
	c-0.1-0.1-0.2-0.3-0.2-0.5l0.2-0.8c-0.3-0.3-0.5-0.7-0.6-1L16,20.1C15.8,20,15.7,19.9,15.6,19.7L15.6,19.7z M20.4,20.5
	c-0.9,0-1.6-0.7-1.6-1.6c0-0.9,0.7-1.6,1.6-1.6l0,0c0.9,0,1.6,0.7,1.6,1.6C22.1,19.8,21.3,20.5,20.4,20.5z M21.1,18.9
	c0-0.4-0.3-0.7-0.7-0.7s-0.7,0.3-0.7,0.7s0.3,0.7,0.7,0.7S21.1,19.2,21.1,18.9z"/>
</svg>
